<svg xmlns="http://www.w3.org/2000/svg" xmlns:xlink="http://www.w3.org/1999/xlink" width="500" zoomAndPan="magnify" viewBox="0 0 375 374.999991" height="500" preserveAspectRatio="xMidYMid meet" version="1.0"><defs><g/><clipPath id="6bcde6fbf5"><path d="M 72.699219 109 L 89 109 L 89 161 L 72.699219 161 Z M 72.699219 109 " clip-rule="nonzero"/></clipPath><clipPath id="b88163439a"><path d="M 286 109 L 302.199219 109 L 302.199219 161 L 286 161 Z M 286 109 " clip-rule="nonzero"/></clipPath><clipPath id="4c9c417efb"><path d="M 66.566406 27.015625 L 156.566406 27.015625 L 156.566406 117 L 66.566406 117 Z M 66.566406 27.015625 " clip-rule="nonzero"/></clipPath></defs><rect x="-37.5" width="450" fill="#ffffff" y="-37.499999" height="449.999989" fill-opacity="1"/><rect x="-37.5" width="450" fill="#ffd700" y="-37.499999" height="449.999989" fill-opacity="1"/><path fill="#ffffff" d="M 115.390625 247.804688 L 115.390625 260.207031 C 115.390625 265.476562 119.664062 269.746094 124.933594 269.746094 L 134.472656 269.746094 C 139.742188 269.746094 144.011719 265.476562 144.011719 260.207031 L 144.011719 247.804688 Z M 115.390625 247.804688 " fill-opacity="1" fill-rule="nonzero"/><path fill="#ffffff" d="M 231.070312 247.804688 L 231.070312 260.207031 C 231.070312 265.476562 235.34375 269.746094 240.613281 269.746094 L 250.152344 269.746094 C 255.421875 269.746094 259.691406 265.476562 259.691406 260.207031 L 259.691406 247.804688 Z M 231.070312 247.804688 " fill-opacity="1" fill-rule="nonzero"/><path fill="#ffffff" d="M 246.742188 55.109375 L 128.34375 55.109375 C 109.664062 55.109375 94.523438 70.25 94.523438 88.933594 L 94.523438 228.433594 C 94.523438 235.265625 100.066406 240.808594 106.898438 240.808594 L 268.191406 240.808594 C 275.019531 240.808594 280.5625 235.265625 280.5625 228.433594 L 280.5625 88.933594 C 280.5625 70.25 265.421875 55.109375 246.742188 55.109375 Z M 124.734375 217.59375 C 117.53125 217.59375 111.695312 211.753906 111.695312 204.554688 C 111.695312 197.351562 117.53125 191.515625 124.734375 191.515625 C 131.933594 191.515625 137.773438 197.351562 137.773438 204.554688 C 137.773438 211.753906 131.933594 217.59375 124.734375 217.59375 Z M 228.035156 217.003906 L 151.707031 217.003906 C 149.222656 217.003906 147.207031 214.988281 147.207031 212.503906 C 147.207031 210.019531 149.222656 208.003906 151.707031 208.003906 L 228.035156 208.003906 C 230.519531 208.003906 232.535156 210.019531 232.535156 212.503906 C 232.535156 214.988281 230.519531 217.003906 228.035156 217.003906 Z M 228.035156 201.105469 L 151.707031 201.105469 C 149.222656 201.105469 147.207031 199.089844 147.207031 196.601562 C 147.207031 194.117188 149.222656 192.101562 151.707031 192.101562 L 228.035156 192.101562 C 230.519531 192.101562 232.535156 194.117188 232.535156 196.601562 C 232.535156 199.089844 230.519531 201.105469 228.035156 201.105469 Z M 250.351562 217.59375 C 243.152344 217.59375 237.3125 211.753906 237.3125 204.554688 C 237.3125 197.351562 243.152344 191.515625 250.351562 191.515625 C 257.554688 191.515625 263.390625 197.351562 263.390625 204.554688 C 263.390625 211.753906 257.554688 217.59375 250.351562 217.59375 Z M 263.390625 144.375 C 263.390625 157.058594 253.109375 167.335938 240.425781 167.335938 L 134.65625 167.335938 C 121.976562 167.335938 111.695312 157.058594 111.695312 144.375 L 111.695312 94.273438 C 111.695312 81.589844 121.976562 71.3125 134.65625 71.3125 L 240.425781 71.3125 C 253.109375 71.3125 263.390625 81.589844 263.390625 94.273438 Z M 263.390625 144.375 " fill-opacity="1" fill-rule="nonzero"/><path fill="#ffffff" d="M 207.710938 160.347656 C 207.964844 153.285156 213.753906 147.632812 220.878906 147.632812 C 228 147.632812 233.789062 153.285156 234.042969 160.347656 L 243.605469 160.347656 C 243.347656 148.011719 233.273438 138.089844 220.878906 138.089844 C 208.480469 138.089844 198.40625 148.011719 198.152344 160.347656 Z M 207.710938 160.347656 " fill-opacity="1" fill-rule="nonzero"/><g clip-path="url(#6bcde6fbf5)"><path fill="#ffffff" d="M 88.320312 152.558594 C 88.320312 156.859375 84.832031 160.347656 80.527344 160.347656 C 76.226562 160.347656 72.738281 156.859375 72.738281 152.558594 L 72.738281 117.257812 C 72.738281 112.953125 76.226562 109.464844 80.527344 109.464844 C 84.832031 109.464844 88.320312 112.953125 88.320312 117.257812 Z M 88.320312 152.558594 " fill-opacity="1" fill-rule="nonzero"/></g><g clip-path="url(#b88163439a)"><path fill="#ffffff" d="M 302.347656 152.558594 C 302.347656 156.859375 298.859375 160.347656 294.554688 160.347656 C 290.253906 160.347656 286.765625 156.859375 286.765625 152.558594 L 286.765625 117.257812 C 286.765625 112.953125 290.253906 109.464844 294.554688 109.464844 C 298.859375 109.464844 302.347656 112.953125 302.347656 117.257812 Z M 302.347656 152.558594 " fill-opacity="1" fill-rule="nonzero"/></g><g clip-path="url(#4c9c417efb)"><path fill="#007a3d" d="M 156.296875 71.882812 C 156.296875 96.660156 136.210938 116.746094 111.429688 116.746094 C 86.652344 116.746094 66.566406 96.660156 66.566406 71.882812 C 66.566406 47.105469 86.652344 27.015625 111.429688 27.015625 C 136.210938 27.015625 156.296875 47.105469 156.296875 71.882812 " fill-opacity="1" fill-rule="nonzero"/></g><path fill="#ffffff" d="M 140.570312 47.644531 C 133.582031 39.347656 123.125 34.074219 111.429688 34.074219 C 90.402344 34.074219 73.351562 51.121094 73.351562 72.148438 C 73.351562 87.207031 82.09375 100.214844 94.777344 106.394531 C 99.808594 108.847656 105.457031 110.226562 111.429688 110.226562 C 132.460938 110.226562 149.507812 93.179688 149.507812 72.148438 C 149.507812 62.8125 146.144531 54.269531 140.570312 47.644531 " fill-opacity="1" fill-rule="nonzero"/><path fill="#007a3d" d="M 112.199219 49.066406 C 112.199219 49.277344 111.859375 49.445312 111.429688 49.445312 C 111.007812 49.445312 110.660156 49.277344 110.660156 49.066406 L 110.660156 38.402344 C 110.660156 38.195312 111.007812 38.027344 111.429688 38.027344 C 111.859375 38.027344 112.199219 38.195312 112.199219 38.402344 L 112.199219 49.066406 " fill-opacity="1" fill-rule="nonzero"/><path fill="#007a3d" d="M 112.199219 106.621094 C 112.199219 106.832031 111.859375 107 111.429688 107 C 111.007812 107 110.660156 106.832031 110.660156 106.621094 L 110.660156 95.957031 C 110.660156 95.75 111.007812 95.578125 111.429688 95.578125 C 111.859375 95.578125 112.199219 95.75 112.199219 95.957031 L 112.199219 106.621094 " fill-opacity="1" fill-rule="nonzero"/><path fill="#007a3d" d="M 135.230469 73.28125 C 135.019531 73.28125 134.851562 72.9375 134.851562 72.511719 C 134.851562 72.089844 135.019531 71.742188 135.230469 71.742188 L 145.894531 71.742188 C 146.105469 71.742188 146.269531 72.089844 146.269531 72.511719 C 146.269531 72.9375 146.105469 73.28125 145.894531 73.28125 L 135.230469 73.28125 " fill-opacity="1" fill-rule="nonzero"/><path fill="#ec3223" d="M 109.464844 72.234375 L 110.464844 74.050781 L 87.46875 86.753906 L 85.082031 86.9375 L 86.460938 84.9375 L 109.464844 72.234375 " fill-opacity="1" fill-rule="nonzero"/><path fill="#007a3d" d="M 77.125 73.28125 C 76.917969 73.28125 76.746094 72.9375 76.746094 72.511719 C 76.746094 72.089844 76.917969 71.742188 77.125 71.742188 L 87.789062 71.742188 C 87.996094 71.742188 88.167969 72.089844 88.167969 72.511719 C 88.167969 72.9375 87.996094 73.28125 87.789062 73.28125 L 77.125 73.28125 " fill-opacity="1" fill-rule="nonzero"/><path fill="#0c1a23" d="M 110.363281 70.40625 C 112.394531 70.40625 114.039062 72.050781 114.039062 74.082031 C 114.039062 76.113281 112.394531 77.761719 110.363281 77.761719 C 108.328125 77.761719 106.683594 76.113281 106.683594 74.082031 C 106.683594 72.050781 108.328125 70.40625 110.363281 70.40625 " fill-opacity="1" fill-rule="nonzero"/><path fill="#0c1a23" d="M 110.625 71.347656 L 107.53125 74.082031 L 98.199219 63.382812 L 98.199219 60.039062 L 101.292969 60.644531 L 110.625 71.347656 " fill-opacity="1" fill-rule="nonzero"/><path fill="#0c1a23" d="M 112.105469 74.253906 L 110.359375 71.601562 L 135.425781 55.078125 L 138.332031 54.976562 L 137.175781 57.726562 L 112.105469 74.253906 " fill-opacity="1" fill-rule="nonzero"/><g fill="#ffffff" fill-opacity="1"><g transform="translate(88.064494, 299.576079)"><g><path d="M 14.09375 0.765625 C 9.800781 0.765625 6.554688 0.203125 4.359375 -0.921875 C 2.171875 -2.046875 1.078125 -3.929688 1.078125 -6.578125 C 1.078125 -7.472656 1.1875 -8.421875 1.40625 -9.421875 C 1.625 -10.421875 1.851562 -11.363281 2.09375 -12.25 L 4.8125 -11.5625 C 4.664062 -11.03125 4.5 -10.351562 4.3125 -9.53125 C 4.132812 -8.71875 4.046875 -8.007812 4.046875 -7.40625 C 4.046875 -6.15625 4.363281 -5.148438 5 -4.390625 C 5.644531 -3.628906 6.757812 -3.070312 8.34375 -2.71875 C 9.9375 -2.375 12.164062 -2.203125 15.03125 -2.203125 C 20.644531 -2.203125 24.742188 -2.507812 27.328125 -3.125 C 29.921875 -3.738281 31.21875 -4.878906 31.21875 -6.546875 C 31.21875 -7.429688 31.050781 -8.484375 30.71875 -9.703125 C 30.382812 -10.921875 29.953125 -12.21875 29.421875 -13.59375 L 32.203125 -14.5625 C 32.660156 -13.382812 33.085938 -12.117188 33.484375 -10.765625 C 33.878906 -9.421875 34.078125 -8.207031 34.078125 -7.125 C 34.078125 -5.695312 33.75 -4.484375 33.09375 -3.484375 C 32.445312 -2.484375 31.363281 -1.671875 29.84375 -1.046875 C 28.332031 -0.421875 26.289062 0.0351562 23.71875 0.328125 C 21.15625 0.617188 17.945312 0.765625 14.09375 0.765625 Z M 20.140625 -14.484375 C 19.628906 -14.484375 19.195312 -14.65625 18.84375 -15 C 18.5 -15.351562 18.328125 -15.769531 18.328125 -16.25 C 18.328125 -16.738281 18.5 -17.160156 18.84375 -17.515625 C 19.195312 -17.878906 19.628906 -18.0625 20.140625 -18.0625 C 20.617188 -18.0625 21.03125 -17.878906 21.375 -17.515625 C 21.726562 -17.160156 21.90625 -16.738281 21.90625 -16.25 C 21.90625 -15.769531 21.726562 -15.351562 21.375 -15 C 21.03125 -14.65625 20.617188 -14.484375 20.140625 -14.484375 Z M 15.1875 -14.484375 C 14.675781 -14.484375 14.242188 -14.65625 13.890625 -15 C 13.546875 -15.351562 13.375 -15.769531 13.375 -16.25 C 13.375 -16.738281 13.546875 -17.160156 13.890625 -17.515625 C 14.242188 -17.878906 14.675781 -18.0625 15.1875 -18.0625 C 15.664062 -18.0625 16.078125 -17.878906 16.421875 -17.515625 C 16.773438 -17.160156 16.953125 -16.738281 16.953125 -16.25 C 16.953125 -15.769531 16.773438 -15.351562 16.421875 -15 C 16.078125 -14.65625 15.664062 -14.484375 15.1875 -14.484375 Z M 15.1875 -14.484375 "/></g></g></g><g fill="#ffffff" fill-opacity="1"><g transform="translate(123.942512, 299.576079)"><g><path d="M 10.515625 0.1875 C 8.566406 0.1875 7.082031 -0.03125 6.0625 -0.46875 C 5.050781 -0.90625 4.351562 -1.578125 3.96875 -2.484375 C 3.582031 -3.398438 3.367188 -4.582031 3.328125 -6.03125 L 2.609375 -25.796875 L 5.5625 -25.796875 L 6.28125 -7.1875 C 6.332031 -6.007812 6.445312 -5.097656 6.625 -4.453125 C 6.8125 -3.816406 7.222656 -3.378906 7.859375 -3.140625 C 8.492188 -2.898438 9.5 -2.78125 10.875 -2.78125 C 11.382812 -2.78125 11.753906 -2.640625 11.984375 -2.359375 C 12.210938 -2.085938 12.328125 -1.757812 12.328125 -1.375 C 12.328125 -0.988281 12.15625 -0.628906 11.8125 -0.296875 C 11.476562 0.0234375 11.046875 0.1875 10.515625 0.1875 Z M 10.515625 0.1875 "/></g></g></g><g fill="#ffffff" fill-opacity="1"><g transform="translate(134.456608, 299.576079)"><g><path d="M 17.484375 0.65625 C 14.910156 0.65625 12.832031 0.539062 11.25 0.3125 C 9.675781 0.0820312 8.476562 -0.265625 7.65625 -0.734375 C 6.84375 -1.210938 6.28125 -1.8125 5.96875 -2.53125 C 5.382812 -1.6875 4.773438 -1.078125 4.140625 -0.703125 C 3.503906 -0.328125 2.84375 -0.0859375 2.15625 0.015625 C 1.46875 0.128906 0.75 0.1875 0 0.1875 L 0.359375 -2.78125 C 1.492188 -2.78125 2.359375 -3.003906 2.953125 -3.453125 C 3.554688 -3.898438 4.035156 -4.640625 4.390625 -5.671875 C 4.742188 -6.710938 5.132812 -8.132812 5.5625 -9.9375 L 8.203125 -9.25 C 7.960938 -8.40625 7.773438 -7.640625 7.640625 -6.953125 C 7.503906 -6.265625 7.4375 -5.765625 7.4375 -5.453125 C 7.4375 -4.773438 7.625 -4.210938 8 -3.765625 C 8.375 -3.328125 9.15625 -3 10.34375 -2.78125 C 11.113281 -3.988281 12.023438 -5.210938 13.078125 -6.453125 C 14.140625 -7.691406 15.296875 -8.828125 16.546875 -9.859375 C 17.804688 -10.898438 19.113281 -11.738281 20.46875 -12.375 C 21.832031 -13.007812 23.210938 -13.328125 24.609375 -13.328125 C 25.929688 -13.328125 27.066406 -13.054688 28.015625 -12.515625 C 28.972656 -11.972656 29.710938 -11.242188 30.234375 -10.328125 C 30.753906 -9.421875 31.015625 -8.390625 31.015625 -7.234375 C 31.015625 -5.804688 30.59375 -4.492188 29.75 -3.296875 C 28.90625 -2.109375 27.5 -1.148438 25.53125 -0.421875 C 23.570312 0.296875 20.890625 0.65625 17.484375 0.65625 Z M 24.390625 -10.375 C 23.304688 -10.375 22.21875 -10.101562 21.125 -9.5625 C 20.03125 -9.019531 18.988281 -8.328125 18 -7.484375 C 17.007812 -6.640625 16.113281 -5.765625 15.3125 -4.859375 C 14.519531 -3.953125 13.859375 -3.140625 13.328125 -2.421875 C 14.609375 -2.347656 16.210938 -2.3125 18.140625 -2.3125 C 21.316406 -2.3125 23.789062 -2.703125 25.5625 -3.484375 C 27.332031 -4.265625 28.21875 -5.414062 28.21875 -6.9375 C 28.21875 -7.46875 28.085938 -7.988281 27.828125 -8.5 C 27.566406 -9.019531 27.148438 -9.460938 26.578125 -9.828125 C 26.015625 -10.191406 25.285156 -10.375 24.390625 -10.375 Z M 24.390625 -10.375 "/></g></g></g><g fill="#ffffff" fill-opacity="1"><g transform="translate(167.082841, 299.576079)"><g><path d="M 10.515625 0.1875 C 8.566406 0.1875 7.082031 -0.03125 6.0625 -0.46875 C 5.050781 -0.90625 4.351562 -1.578125 3.96875 -2.484375 C 3.582031 -3.398438 3.367188 -4.582031 3.328125 -6.03125 L 2.609375 -25.796875 L 5.5625 -25.796875 L 6.28125 -7.1875 C 6.332031 -6.007812 6.445312 -5.097656 6.625 -4.453125 C 6.8125 -3.816406 7.222656 -3.378906 7.859375 -3.140625 C 8.492188 -2.898438 9.5 -2.78125 10.875 -2.78125 C 11.382812 -2.78125 11.753906 -2.640625 11.984375 -2.359375 C 12.210938 -2.085938 12.328125 -1.757812 12.328125 -1.375 C 12.328125 -0.988281 12.15625 -0.628906 11.8125 -0.296875 C 11.476562 0.0234375 11.046875 0.1875 10.515625 0.1875 Z M 10.515625 0.1875 "/></g></g></g><g fill="#ffffff" fill-opacity="1"><g transform="translate(177.596937, 299.576079)"><g><path d="M 0 0.1875 L 0.359375 -2.78125 C 1.367188 -2.78125 2.160156 -2.867188 2.734375 -3.046875 C 3.316406 -3.234375 3.757812 -3.582031 4.0625 -4.09375 C 4.363281 -4.613281 4.625 -5.367188 4.84375 -6.359375 C 5.0625 -7.347656 5.328125 -8.640625 5.640625 -10.234375 L 8.453125 -9.6875 C 8.304688 -9.03125 8.144531 -8.28125 7.96875 -7.4375 C 7.789062 -6.601562 7.703125 -5.894531 7.703125 -5.3125 C 7.703125 -4.832031 7.804688 -4.398438 8.015625 -4.015625 C 8.234375 -3.628906 8.695312 -3.328125 9.40625 -3.109375 C 10.125 -2.890625 11.238281 -2.78125 12.75 -2.78125 C 13.257812 -2.78125 13.628906 -2.640625 13.859375 -2.359375 C 14.085938 -2.085938 14.203125 -1.757812 14.203125 -1.375 C 14.203125 -0.988281 14.03125 -0.628906 13.6875 -0.296875 C 13.351562 0.0234375 12.921875 0.1875 12.390625 0.1875 C 10.492188 0.1875 9.085938 -0.015625 8.171875 -0.421875 C 7.253906 -0.835938 6.625 -1.457031 6.28125 -2.28125 C 5.5625 -1.269531 4.734375 -0.601562 3.796875 -0.28125 C 2.859375 0.03125 1.59375 0.1875 0 0.1875 Z M 6.140625 6.90625 C 5.628906 6.90625 5.195312 6.726562 4.84375 6.375 C 4.5 6.03125 4.328125 5.617188 4.328125 5.140625 C 4.328125 4.648438 4.5 4.222656 4.84375 3.859375 C 5.195312 3.503906 5.628906 3.328125 6.140625 3.328125 C 6.617188 3.328125 7.03125 3.503906 7.375 3.859375 C 7.726562 4.222656 7.90625 4.648438 7.90625 5.140625 C 7.90625 5.617188 7.726562 6.03125 7.375 6.375 C 7.03125 6.726562 6.617188 6.90625 6.140625 6.90625 Z M 6.140625 6.90625 "/></g></g></g><g fill="#ffffff" fill-opacity="1"><g transform="translate(189.989845, 299.576079)"><g><path d="M 0 0.1875 L 0.328125 -2.78125 C 1.703125 -2.78125 2.664062 -2.910156 3.21875 -3.171875 C 3.769531 -3.441406 4.085938 -3.90625 4.171875 -4.5625 C 4.253906 -5.226562 4.273438 -6.175781 4.234375 -7.40625 L 3.546875 -25.796875 L 6.46875 -25.796875 L 7.1875 -7.734375 C 7.257812 -6.023438 7.144531 -4.578125 6.84375 -3.390625 C 6.539062 -2.210938 5.863281 -1.320312 4.8125 -0.71875 C 3.769531 -0.113281 2.164062 0.1875 0 0.1875 Z M 0 0.1875 "/></g></g></g><g fill="#ffffff" fill-opacity="1"><g transform="translate(199.383886, 299.576079)"><g><path d="M 3.328125 0 L 2.609375 -25.796875 L 5.53125 -25.796875 L 6.25 0 Z M 3.328125 0 "/></g></g></g><g fill="#ffffff" fill-opacity="1"><g transform="translate(207.983044, 299.576079)"><g/></g></g><g fill="#ffffff" fill-opacity="1"><g transform="translate(220.448221, 299.576079)"><g><path d="M 1.078125 0.03125 C 1.078125 -0.832031 1.195312 -1.789062 1.4375 -2.84375 C 1.6875 -3.90625 2.078125 -5.078125 2.609375 -6.359375 L 5.203125 -5.34375 C 4.816406 -4.332031 4.523438 -3.40625 4.328125 -2.5625 C 4.140625 -1.71875 4.046875 -0.9375 4.046875 -0.21875 C 4.046875 1.007812 4.367188 2.046875 5.015625 2.890625 C 5.671875 3.734375 6.519531 4.363281 7.5625 4.78125 C 8.613281 5.207031 9.742188 5.421875 10.953125 5.421875 C 13.285156 5.421875 15.117188 5.003906 16.453125 4.171875 C 17.796875 3.335938 18.722656 2.238281 19.234375 0.875 C 19.753906 -0.476562 19.992188 -1.960938 19.953125 -3.578125 L 19.15625 -25.796875 L 22.15625 -25.796875 L 22.734375 -7.484375 C 22.753906 -6.253906 22.945312 -5.296875 23.3125 -4.609375 C 23.675781 -3.921875 24.15625 -3.441406 24.75 -3.171875 C 25.351562 -2.910156 26.019531 -2.78125 26.75 -2.78125 C 27.25 -2.78125 27.613281 -2.640625 27.84375 -2.359375 C 28.070312 -2.085938 28.1875 -1.757812 28.1875 -1.375 C 28.1875 -0.988281 28.015625 -0.628906 27.671875 -0.296875 C 27.335938 0.0234375 26.90625 0.1875 26.375 0.1875 C 25.488281 0.1875 24.757812 0.046875 24.1875 -0.234375 C 23.625 -0.515625 23.175781 -0.859375 22.84375 -1.265625 C 22.675781 -0.0546875 22.34375 1.113281 21.84375 2.25 C 21.351562 3.394531 20.632812 4.429688 19.6875 5.359375 C 18.75 6.296875 17.550781 7.035156 16.09375 7.578125 C 14.644531 8.117188 12.867188 8.390625 10.765625 8.390625 C 9.078125 8.390625 7.5 8.054688 6.03125 7.390625 C 4.5625 6.722656 3.367188 5.769531 2.453125 4.53125 C 1.535156 3.289062 1.078125 1.789062 1.078125 0.03125 Z M 1.078125 0.03125 "/></g></g></g><g fill="#ffffff" fill-opacity="1"><g transform="translate(246.823802, 299.576079)"><g><path d="M 0 0.1875 L 0.359375 -2.78125 C 1.566406 -2.78125 2.503906 -2.867188 3.171875 -3.046875 C 3.847656 -3.234375 4.359375 -3.582031 4.703125 -4.09375 C 5.054688 -4.613281 5.34375 -5.367188 5.5625 -6.359375 C 5.78125 -7.347656 6.046875 -8.640625 6.359375 -10.234375 L 9.1875 -9.6875 C 9.039062 -9.03125 8.875 -8.28125 8.6875 -7.4375 C 8.507812 -6.601562 8.421875 -5.894531 8.421875 -5.3125 C 8.421875 -4.945312 8.441406 -4.609375 8.484375 -4.296875 C 8.535156 -3.984375 8.71875 -3.71875 9.03125 -3.5 C 9.34375 -3.289062 9.875 -3.117188 10.625 -2.984375 C 11.375 -2.847656 12.445312 -2.78125 13.84375 -2.78125 C 14.34375 -2.78125 14.707031 -2.640625 14.9375 -2.359375 C 15.164062 -2.085938 15.28125 -1.757812 15.28125 -1.375 C 15.28125 -0.988281 15.113281 -0.628906 14.78125 -0.296875 C 14.445312 0.0234375 14.015625 0.1875 13.484375 0.1875 C 11.910156 0.1875 10.6875 0.0976562 9.8125 -0.078125 C 8.9375 -0.265625 8.285156 -0.53125 7.859375 -0.875 C 7.441406 -1.226562 7.132812 -1.671875 6.9375 -2.203125 C 6.238281 -1.210938 5.375 -0.566406 4.34375 -0.265625 C 3.320312 0.0351562 1.875 0.1875 0 0.1875 Z M 9.109375 7.015625 C 8.597656 7.015625 8.164062 6.835938 7.8125 6.484375 C 7.46875 6.140625 7.296875 5.726562 7.296875 5.25 C 7.296875 4.769531 7.46875 4.347656 7.8125 3.984375 C 8.164062 3.617188 8.597656 3.4375 9.109375 3.4375 C 9.585938 3.4375 10 3.617188 10.34375 3.984375 C 10.695312 4.347656 10.875 4.769531 10.875 5.25 C 10.875 5.726562 10.695312 6.140625 10.34375 6.484375 C 10 6.835938 9.585938 7.015625 9.109375 7.015625 Z M 4.15625 7.015625 C 3.644531 7.015625 3.210938 6.835938 2.859375 6.484375 C 2.515625 6.140625 2.34375 5.726562 2.34375 5.25 C 2.34375 4.769531 2.515625 4.347656 2.859375 3.984375 C 3.210938 3.617188 3.644531 3.4375 4.15625 3.4375 C 4.632812 3.4375 5.046875 3.617188 5.390625 3.984375 C 5.742188 4.347656 5.921875 4.769531 5.921875 5.25 C 5.921875 5.726562 5.742188 6.140625 5.390625 6.484375 C 5.046875 6.835938 4.632812 7.015625 4.15625 7.015625 Z M 4.15625 7.015625 "/></g></g></g><g fill="#ffffff" fill-opacity="1"><g transform="translate(260.300638, 299.576079)"><g><path d="M 0 0.1875 L 0.328125 -2.78125 C 1.703125 -2.78125 2.664062 -2.910156 3.21875 -3.171875 C 3.769531 -3.441406 4.085938 -3.90625 4.171875 -4.5625 C 4.253906 -5.226562 4.273438 -6.175781 4.234375 -7.40625 L 3.546875 -25.796875 L 6.46875 -25.796875 L 7.1875 -7.734375 C 7.257812 -6.023438 7.144531 -4.578125 6.84375 -3.390625 C 6.539062 -2.210938 5.863281 -1.320312 4.8125 -0.71875 C 3.769531 -0.113281 2.164062 0.1875 0 0.1875 Z M 0 0.1875 "/></g></g></g><g fill="#ffffff" fill-opacity="1"><g transform="translate(269.694679, 299.576079)"><g><path d="M 1.265625 -1.625 L 2.703125 -4.125 C 3.191406 -3.78125 3.867188 -3.46875 4.734375 -3.1875 C 5.597656 -2.914062 6.609375 -2.78125 7.765625 -2.78125 C 9.546875 -2.78125 10.8125 -3.050781 11.5625 -3.59375 C 12.3125 -4.132812 12.6875 -4.890625 12.6875 -5.859375 C 12.6875 -6.335938 12.582031 -6.929688 12.375 -7.640625 C 12.175781 -8.347656 11.738281 -9.3125 11.0625 -10.53125 C 10.382812 -11.75 9.347656 -13.347656 7.953125 -15.328125 L 10.4375 -16.953125 C 12.34375 -14.296875 13.679688 -12.039062 14.453125 -10.1875 C 15.222656 -8.332031 15.609375 -6.828125 15.609375 -5.671875 C 15.609375 -4.679688 15.367188 -3.738281 14.890625 -2.84375 C 14.410156 -1.957031 13.601562 -1.222656 12.46875 -0.640625 C 11.332031 -0.0664062 9.765625 0.21875 7.765625 0.21875 C 6.441406 0.21875 5.210938 0.0546875 4.078125 -0.265625 C 2.953125 -0.597656 2.015625 -1.050781 1.265625 -1.625 Z M 1.265625 -1.625 "/></g></g></g><g fill="#ffffff" fill-opacity="1"><g transform="translate(86.997664, 349.779853)"><g><path d="M 3.1875 -28.1875 L 9.765625 -28.1875 L 9.6875 -24.859375 C 10.71875 -25.941406 11.875 -26.765625 13.15625 -27.328125 C 14.4375 -27.898438 15.75 -28.1875 17.09375 -28.1875 C 18.539062 -28.1875 19.867188 -27.851562 21.078125 -27.1875 C 22.296875 -26.53125 23.351562 -25.617188 24.25 -24.453125 C 25.144531 -23.285156 25.832031 -21.941406 26.3125 -20.421875 C 26.789062 -18.898438 27.03125 -17.285156 27.03125 -15.578125 C 27.03125 -13.816406 26.765625 -12.09375 26.234375 -10.40625 C 25.128906 -6.863281 22.804688 -4.164062 19.265625 -2.3125 C 15.722656 -0.457031 10.804688 0.46875 4.515625 0.46875 Z M 9.1875 -1.546875 C 12.695312 -2.703125 15.34375 -4.0625 17.125 -5.625 C 18.914062 -7.195312 20.023438 -8.71875 20.453125 -10.1875 C 20.835938 -11.507812 21.03125 -12.945312 21.03125 -14.5 C 21.03125 -16.101562 20.828125 -17.640625 20.421875 -19.109375 C 20.015625 -20.585938 19.441406 -21.804688 18.703125 -22.765625 C 17.960938 -23.734375 17.125 -24.273438 16.1875 -24.390625 C 15.6875 -24.460938 15.191406 -24.5 14.703125 -24.5 C 13.859375 -24.5 13.015625 -24.394531 12.171875 -24.1875 C 11.335938 -23.988281 10.5 -23.660156 9.65625 -23.203125 Z M 9.1875 -1.546875 "/></g></g></g><g fill="#ffffff" fill-opacity="1"><g transform="translate(116.083066, 349.779853)"><g><path d="M 22.40625 -2.890625 C 21.300781 -1.859375 20.328125 -1.039062 19.484375 -0.4375 C 18.640625 0.164062 17.878906 0.46875 17.203125 0.46875 C 16.671875 0.46875 16.191406 0.257812 15.765625 -0.15625 C 15.347656 -0.582031 14.957031 -1.265625 14.59375 -2.203125 C 13.851562 -1.554688 12.941406 -1.007812 11.859375 -0.5625 C 10.773438 -0.113281 9.601562 0.179688 8.34375 0.328125 C 7.957031 0.367188 7.582031 0.398438 7.21875 0.421875 C 6.863281 0.453125 6.519531 0.46875 6.1875 0.46875 C 2.78125 0.46875 1.078125 -0.75 1.078125 -3.1875 C 1.078125 -3.46875 1.101562 -3.765625 1.15625 -4.078125 C 1.207031 -4.390625 1.28125 -4.726562 1.375 -5.09375 C 1.59375 -5.882812 2.03125 -6.597656 2.6875 -7.234375 C 3.351562 -7.878906 4.15625 -8.460938 5.09375 -8.984375 C 6.03125 -9.503906 6.992188 -9.984375 7.984375 -10.421875 C 8.972656 -10.867188 9.894531 -11.289062 10.75 -11.6875 C 11.601562 -12.082031 12.300781 -12.472656 12.84375 -12.859375 C 13.382812 -13.242188 13.65625 -13.628906 13.65625 -14.015625 C 13.65625 -15.078125 13.519531 -15.796875 13.25 -16.171875 C 12.988281 -16.546875 12.488281 -16.734375 11.75 -16.734375 C 11.21875 -16.734375 10.394531 -16.679688 9.28125 -16.578125 C 8.175781 -16.484375 6.960938 -16.335938 5.640625 -16.140625 C 4.316406 -15.953125 3.050781 -15.703125 1.84375 -15.390625 L 1.65625 -15.75 C 2.3125 -16.382812 3.148438 -16.988281 4.171875 -17.5625 C 5.191406 -18.144531 6.285156 -18.664062 7.453125 -19.125 C 8.628906 -19.582031 9.796875 -19.941406 10.953125 -20.203125 C 12.109375 -20.460938 13.15625 -20.59375 14.09375 -20.59375 C 15.582031 -20.59375 16.695312 -20.441406 17.4375 -20.140625 C 18.175781 -19.847656 18.671875 -19.257812 18.921875 -18.375 C 19.171875 -17.5 19.296875 -16.179688 19.296875 -14.421875 L 19.296875 -5.28125 C 19.296875 -4.40625 19.375 -3.78125 19.53125 -3.40625 C 19.6875 -3.039062 20.054688 -2.859375 20.640625 -2.859375 C 20.828125 -2.859375 21.054688 -2.878906 21.328125 -2.921875 C 21.609375 -2.972656 21.921875 -3.035156 22.265625 -3.109375 Z M 13.953125 -10.875 C 13.421875 -10.414062 12.710938 -9.925781 11.828125 -9.40625 C 10.953125 -8.894531 10.101562 -8.34375 9.28125 -7.75 C 8.46875 -7.15625 7.867188 -6.5 7.484375 -5.78125 C 7.140625 -5.101562 6.96875 -4.515625 6.96875 -4.015625 C 6.96875 -3.523438 7.117188 -3.125 7.421875 -2.8125 C 7.722656 -2.5 8.148438 -2.34375 8.703125 -2.34375 C 8.828125 -2.34375 8.953125 -2.347656 9.078125 -2.359375 C 9.210938 -2.378906 9.34375 -2.398438 9.46875 -2.421875 C 9.945312 -2.546875 10.503906 -2.710938 11.140625 -2.921875 C 11.785156 -3.140625 12.390625 -3.394531 12.953125 -3.6875 C 13.523438 -3.976562 13.929688 -4.265625 14.171875 -4.546875 Z M 13.953125 -10.875 "/></g></g></g><g fill="#ffffff" fill-opacity="1"><g transform="translate(138.231329, 349.779853)"><g><path d="M 3.546875 0 L 2.5625 -28.1875 L 9.03125 -28.1875 L 8.0625 0 Z M 3.546875 0 "/></g></g></g><g fill="#ffffff" fill-opacity="1"><g transform="translate(149.829354, 349.779853)"><g><path d="M 1.953125 -28.703125 L 10.734375 -27.171875 L 4.84375 -21.25 Z M 3.5 0 L 2.5625 -20.125 L 8.921875 -20.125 L 7.984375 0 Z M 3.5 0 "/></g></g></g><g fill="#ffffff" fill-opacity="1"><g transform="translate(161.282856, 349.779853)"><g><path d="M 3.546875 0 L 2.5625 -28.1875 L 9.03125 -28.1875 L 8.0625 0 Z M 3.546875 0 "/></g></g></g><g fill="#ffffff" fill-opacity="1"><g transform="translate(172.88088, 349.779853)"><g><path d="M 3.1875 -28.1875 L 9.765625 -28.1875 L 9.71875 -26.28125 C 10.757812 -26.90625 11.820312 -27.378906 12.90625 -27.703125 C 13.988281 -28.023438 15.0625 -28.1875 16.125 -28.1875 C 18.84375 -28.1875 20.832031 -27.660156 22.09375 -26.609375 C 23.363281 -25.566406 24 -24.265625 24 -22.703125 C 24 -22.554688 23.992188 -22.410156 23.984375 -22.265625 C 23.972656 -22.117188 23.953125 -21.972656 23.921875 -21.828125 C 23.773438 -20.671875 23.160156 -19.515625 22.078125 -18.359375 C 20.992188 -17.203125 19.285156 -16.128906 16.953125 -15.140625 C 18.785156 -15.046875 20.328125 -14.671875 21.578125 -14.015625 C 22.828125 -13.367188 23.773438 -12.609375 24.421875 -11.734375 C 25.078125 -10.867188 25.40625 -10.039062 25.40625 -9.25 C 25.40625 -7.25 24.578125 -5.519531 22.921875 -4.0625 C 21.273438 -2.601562 18.894531 -1.484375 15.78125 -0.703125 C 12.675781 0.078125 8.921875 0.46875 4.515625 0.46875 Z M 9.46875 -13.875 C 11.5625 -14.863281 13.238281 -15.863281 14.5 -16.875 C 15.769531 -17.882812 16.695312 -18.816406 17.28125 -19.671875 C 17.875 -20.535156 18.207031 -21.191406 18.28125 -21.640625 C 18.3125 -21.742188 18.328125 -21.835938 18.328125 -21.921875 C 18.328125 -22.003906 18.328125 -22.09375 18.328125 -22.1875 C 18.328125 -23.007812 18.0625 -23.765625 17.53125 -24.453125 C 17 -25.140625 16.273438 -25.484375 15.359375 -25.484375 C 14.328125 -25.484375 13.363281 -25.425781 12.46875 -25.3125 C 11.570312 -25.207031 10.644531 -25.007812 9.6875 -24.71875 Z M 9.1875 -1.234375 C 11.207031 -1.691406 12.859375 -2.226562 14.140625 -2.84375 C 15.429688 -3.457031 16.429688 -4.113281 17.140625 -4.8125 C 17.859375 -5.507812 18.359375 -6.222656 18.640625 -6.953125 C 18.929688 -7.691406 19.078125 -8.421875 19.078125 -9.140625 C 19.078125 -9.554688 18.941406 -9.960938 18.671875 -10.359375 C 18.410156 -10.753906 17.929688 -11.125 17.234375 -11.46875 C 16.535156 -11.820312 15.550781 -12.113281 14.28125 -12.34375 C 13.019531 -12.570312 11.40625 -12.695312 9.4375 -12.71875 Z M 9.1875 -1.234375 "/></g></g></g><g fill="#ffffff" fill-opacity="1"><g transform="translate(199.473253, 349.779853)"><g><path d="M 23.8125 -2.890625 C 22.78125 -1.929688 21.804688 -1.128906 20.890625 -0.484375 C 19.972656 0.148438 19.164062 0.46875 18.46875 0.46875 C 17.863281 0.46875 17.363281 0.175781 16.96875 -0.40625 C 16.570312 -1 16.3125 -2.019531 16.1875 -3.46875 C 15.707031 -2.71875 15.054688 -2.046875 14.234375 -1.453125 C 13.421875 -0.867188 12.539062 -0.40625 11.59375 -0.0625 C 10.65625 0.269531 9.765625 0.4375 8.921875 0.4375 C 7.453125 0.4375 6.304688 0.171875 5.484375 -0.359375 C 4.671875 -0.890625 4.082031 -1.664062 3.71875 -2.6875 C 3.363281 -3.71875 3.125 -5.003906 3 -6.546875 L 2.0625 -20.125 L 8.234375 -20.125 L 7.65625 -6.828125 L 7.65625 -6.390625 C 7.65625 -5.335938 7.878906 -4.566406 8.328125 -4.078125 C 8.773438 -3.597656 9.578125 -3.359375 10.734375 -3.359375 C 11.410156 -3.359375 12.238281 -3.535156 13.21875 -3.890625 C 14.207031 -4.253906 15.148438 -4.859375 16.046875 -5.703125 L 15.078125 -20.125 L 21.21875 -20.125 L 20.703125 -6.25 L 20.703125 -5.28125 C 20.703125 -4.40625 20.78125 -3.78125 20.9375 -3.40625 C 21.09375 -3.039062 21.460938 -2.859375 22.046875 -2.859375 C 22.234375 -2.859375 22.46875 -2.878906 22.75 -2.921875 C 23.03125 -2.972656 23.335938 -3.035156 23.671875 -3.109375 Z M 23.8125 -2.890625 "/></g></g></g><g fill="#ffffff" fill-opacity="1"><g transform="translate(223.789373, 349.779853)"><g><path d="M 16.625 -13.328125 C 16 -13.960938 15.203125 -14.59375 14.234375 -15.21875 C 13.273438 -15.84375 12.296875 -16.390625 11.296875 -16.859375 C 10.296875 -17.328125 9.421875 -17.625 8.671875 -17.75 C 8.503906 -17.789062 8.335938 -17.8125 8.171875 -17.8125 C 8.003906 -17.8125 7.832031 -17.8125 7.65625 -17.8125 C 6.914062 -17.8125 6.300781 -17.675781 5.8125 -17.40625 C 5.332031 -17.144531 5.09375 -16.8125 5.09375 -16.40625 C 5.09375 -16.019531 5.332031 -15.632812 5.8125 -15.25 C 6.300781 -14.882812 7.03125 -14.460938 8 -13.984375 C 8.976562 -13.503906 10.054688 -12.96875 11.234375 -12.375 C 12.421875 -11.789062 13.59375 -11.144531 14.75 -10.4375 C 15.90625 -9.738281 16.914062 -9.003906 17.78125 -8.234375 C 18.644531 -7.460938 19.222656 -6.644531 19.515625 -5.78125 C 19.734375 -5.175781 19.84375 -4.609375 19.84375 -4.078125 C 19.84375 -2.679688 19.128906 -1.578125 17.703125 -0.765625 C 16.285156 0.0351562 14.179688 0.4375 11.390625 0.4375 C 9.191406 0.4375 7.148438 -0.164062 5.265625 -1.375 C 3.390625 -2.582031 1.835938 -4.132812 0.609375 -6.03125 L 0.90625 -6.390625 C 2.394531 -5.234375 3.984375 -4.320312 5.671875 -3.65625 C 7.359375 -3 9.007812 -2.671875 10.625 -2.671875 C 11.707031 -2.671875 12.554688 -2.816406 13.171875 -3.109375 C 13.785156 -3.398438 14.09375 -3.757812 14.09375 -4.1875 C 14.09375 -4.289062 14.066406 -4.410156 14.015625 -4.546875 C 13.773438 -5.222656 13.195312 -5.878906 12.28125 -6.515625 C 11.375 -7.160156 10.296875 -7.835938 9.046875 -8.546875 C 7.804688 -9.253906 6.539062 -10.046875 5.25 -10.921875 C 3.96875 -11.804688 2.820312 -12.816406 1.8125 -13.953125 C 1.25 -14.628906 0.96875 -15.316406 0.96875 -16.015625 C 0.96875 -16.785156 1.242188 -17.519531 1.796875 -18.21875 C 2.359375 -18.914062 3.144531 -19.484375 4.15625 -19.921875 C 5.164062 -20.367188 6.347656 -20.59375 7.703125 -20.59375 C 9.335938 -20.59375 10.890625 -20.460938 12.359375 -20.203125 C 13.828125 -19.941406 15.144531 -19.597656 16.3125 -19.171875 C 17.488281 -18.753906 18.410156 -18.289062 19.078125 -17.78125 Z M 16.625 -13.328125 "/></g></g></g><g fill="#ffffff" fill-opacity="1"><g transform="translate(244.636916, 349.779853)"><g><path d="M 20.59375 0.46875 C 16.882812 0.46875 13.789062 0.300781 11.3125 -0.03125 C 8.832031 -0.375 6.867188 -0.929688 5.421875 -1.703125 C 3.972656 -2.472656 2.9375 -3.484375 2.3125 -4.734375 C 1.6875 -5.984375 1.375 -7.515625 1.375 -9.328125 C 1.375 -11.660156 1.804688 -13.671875 2.671875 -15.359375 C 3.535156 -17.046875 4.671875 -18.335938 6.078125 -19.234375 C 7.492188 -20.140625 8.984375 -20.59375 10.546875 -20.59375 C 11.804688 -20.59375 13.070312 -20.398438 14.34375 -20.015625 C 15.625 -19.628906 16.816406 -19.003906 17.921875 -18.140625 C 19.035156 -17.273438 19.941406 -16.132812 20.640625 -14.71875 C 21.335938 -13.3125 21.734375 -11.585938 21.828125 -9.546875 L 6.46875 -7.8125 C 6.6875 -6.476562 7.296875 -5.347656 8.296875 -4.421875 C 9.296875 -3.492188 10.804688 -2.679688 12.828125 -1.984375 C 14.847656 -1.285156 17.488281 -0.613281 20.75 0.03125 Z M 15.796875 -12.5 C 15.671875 -13.445312 15.390625 -14.335938 14.953125 -15.171875 C 14.523438 -16.015625 13.972656 -16.695312 13.296875 -17.21875 C 12.617188 -17.738281 11.875 -18 11.0625 -18 C 10.09375 -18 9.257812 -17.769531 8.5625 -17.3125 C 7.863281 -16.851562 7.320312 -15.976562 6.9375 -14.6875 C 6.550781 -13.394531 6.359375 -11.507812 6.359375 -9.03125 C 6.359375 -8.914062 6.359375 -8.800781 6.359375 -8.6875 C 6.359375 -8.582031 6.367188 -8.46875 6.390625 -8.34375 Z M 15.796875 -12.5 "/></g></g></g><g fill="#ffffff" fill-opacity="1"><g transform="translate(267.146478, 349.779853)"><g><path d="M 16.625 -13.328125 C 16 -13.960938 15.203125 -14.59375 14.234375 -15.21875 C 13.273438 -15.84375 12.296875 -16.390625 11.296875 -16.859375 C 10.296875 -17.328125 9.421875 -17.625 8.671875 -17.75 C 8.503906 -17.789062 8.335938 -17.8125 8.171875 -17.8125 C 8.003906 -17.8125 7.832031 -17.8125 7.65625 -17.8125 C 6.914062 -17.8125 6.300781 -17.675781 5.8125 -17.40625 C 5.332031 -17.144531 5.09375 -16.8125 5.09375 -16.40625 C 5.09375 -16.019531 5.332031 -15.632812 5.8125 -15.25 C 6.300781 -14.882812 7.03125 -14.460938 8 -13.984375 C 8.976562 -13.503906 10.054688 -12.96875 11.234375 -12.375 C 12.421875 -11.789062 13.59375 -11.144531 14.75 -10.4375 C 15.90625 -9.738281 16.914062 -9.003906 17.78125 -8.234375 C 18.644531 -7.460938 19.222656 -6.644531 19.515625 -5.78125 C 19.734375 -5.175781 19.84375 -4.609375 19.84375 -4.078125 C 19.84375 -2.679688 19.128906 -1.578125 17.703125 -0.765625 C 16.285156 0.0351562 14.179688 0.4375 11.390625 0.4375 C 9.191406 0.4375 7.148438 -0.164062 5.265625 -1.375 C 3.390625 -2.582031 1.835938 -4.132812 0.609375 -6.03125 L 0.90625 -6.390625 C 2.394531 -5.234375 3.984375 -4.320312 5.671875 -3.65625 C 7.359375 -3 9.007812 -2.671875 10.625 -2.671875 C 11.707031 -2.671875 12.554688 -2.816406 13.171875 -3.109375 C 13.785156 -3.398438 14.09375 -3.757812 14.09375 -4.1875 C 14.09375 -4.289062 14.066406 -4.410156 14.015625 -4.546875 C 13.773438 -5.222656 13.195312 -5.878906 12.28125 -6.515625 C 11.375 -7.160156 10.296875 -7.835938 9.046875 -8.546875 C 7.804688 -9.253906 6.539062 -10.046875 5.25 -10.921875 C 3.96875 -11.804688 2.820312 -12.816406 1.8125 -13.953125 C 1.25 -14.628906 0.96875 -15.316406 0.96875 -16.015625 C 0.96875 -16.785156 1.242188 -17.519531 1.796875 -18.21875 C 2.359375 -18.914062 3.144531 -19.484375 4.15625 -19.921875 C 5.164062 -20.367188 6.347656 -20.59375 7.703125 -20.59375 C 9.335938 -20.59375 10.890625 -20.460938 12.359375 -20.203125 C 13.828125 -19.941406 15.144531 -19.597656 16.3125 -19.171875 C 17.488281 -18.753906 18.410156 -18.289062 19.078125 -17.78125 Z M 16.625 -13.328125 "/></g></g></g></svg>